<svg xmlns="http://www.w3.org/2000/svg" viewBox="0 0 52.18 52.18"><defs><style>.cls-1{fill:#9e9f9f;}.cls-2{fill:#eaeaeb;}</style></defs><title>Element 44</title><g id="Ebene_2" data-name="Ebene 2"><g id="Ebene_1-2" data-name="Ebene 1"><rect class="cls-1" width="52.18" height="52.18"/><path class="cls-2" d="M37.27,20.12q-.18,3.21-4.52,8.74-4.45,5.84-7.54,5.83c-1.29,0-2.38-1.18-3.25-3.54-.23-.8-.54-1.94-.94-3.43s-.68-2.51-.83-3.08c-.65-2.36-1.35-3.54-2.12-3.54a7.24,7.24,0,0,0-1.71,1l-1-1.31c1.15-1,2.21-1.94,3.2-2.86a7.53,7.53,0,0,1,3.26-2q2.57-.22,3.14,3.55c.42,2.7.72,4.38.91,5,.5,2.25,1,3.37,1.6,3.37s1.15-.72,2.06-2.17A8.7,8.7,0,0,0,31,22.41c.16-1.26-.34-1.89-1.48-1.89a4.29,4.29,0,0,0-1.6.35C29,17.33,31,15.61,34.07,15.73,36.31,15.76,37.38,17.23,37.27,20.12Z"/></g></g></svg>