<svg xmlns="http://www.w3.org/2000/svg" viewBox="0 0 52.18 52.18"><defs><style>.cls-1{fill:#9e9f9f;}.cls-2{fill:#eaeaeb;}</style></defs><title>Element 37</title><g id="Ebene_2" data-name="Ebene 2"><g id="Ebene_1-2" data-name="Ebene 1"><rect class="cls-1" width="52.18" height="52.18"/><path class="cls-2" d="M17.63,15.36H34.08v1.83H32.25v3.65A6.12,6.12,0,0,1,31.4,24a6.71,6.71,0,0,1-2.23,2.32,6.76,6.76,0,0,1,2.23,2.31,6.15,6.15,0,0,1,.85,3.17v3.66h1.83v1.82H17.63V35.47h1.83V31.81a6.15,6.15,0,0,1,.85-3.17,6.67,6.67,0,0,1,2.23-2.31A6.62,6.62,0,0,1,20.31,24a6.12,6.12,0,0,1-.85-3.17V17.19H17.63Zm3.65,1.83v3.65a4.59,4.59,0,0,0,4.57,4.57,4.58,4.58,0,0,0,4.57-4.57V17.19Zm7.8,11.39a4.58,4.58,0,0,0-7.8,3.23v3.66h.92V33.64A3.67,3.67,0,0,1,28.45,31a3.52,3.52,0,0,1,1.06,2.6v1.83h.91V31.81A4.39,4.39,0,0,0,29.08,28.58Z"/></g></g></svg>