<svg xmlns="http://www.w3.org/2000/svg" viewBox="0 0 52.18 52.18"><defs><style>.cls-1{fill:#9e9f9f;}.cls-2{fill:#eaeaeb;}</style></defs><title>Element 47</title><g id="Ebene_2" data-name="Ebene 2"><g id="Ebene_1-2" data-name="Ebene 1"><rect class="cls-1" width="52.18" height="52.18"/><path class="cls-2" d="M15,16.26H37v5.49h-.91V36.37H15.94V21.75H15V16.26Zm1.83,1.83v1.83H35.14V18.09Zm.91,3.66V34.54H34.22V21.75Zm5.31,1.82h5.66a.93.93,0,0,1,.66.26.89.89,0,0,1,.25.66.91.91,0,0,1-.25.66.92.92,0,0,1-.66.25h-5.6a.92.92,0,0,1-.63-.25.85.85,0,0,1-.28-.66.82.82,0,0,1,.25-.6A1.18,1.18,0,0,1,23.08,23.57Z"/></g></g></svg>