<svg xmlns="http://www.w3.org/2000/svg" viewBox="0 0 52.18 52.18"><defs><style>.cls-1{fill:#9e9f9f;}.cls-2{fill:#eaeaeb;}</style></defs><title>Element 50</title><g id="Ebene_2" data-name="Ebene 2"><g id="Ebene_1-2" data-name="Ebene 1"><rect class="cls-1" width="52.18" height="52.18"/><path class="cls-2" d="M18.58,21.73l.68,1.6a6.94,6.94,0,0,1,1.52-.17,6.85,6.85,0,0,1,1.51.17l.63-1.6,1.71.68L24,24a6.71,6.71,0,0,1,2.17,2.17l1.6-.68.68,1.71-1.6.63A6.85,6.85,0,0,1,27,29.35a6.94,6.94,0,0,1-.17,1.52l1.6.68-.68,1.66-1.6-.63A6.72,6.72,0,0,1,24,34.69l.68,1.66L22.92,37l-.63-1.66a7.51,7.51,0,0,1-1.51.17,7.61,7.61,0,0,1-1.52-.17L18.58,37l-1.66-.69.63-1.66a6.09,6.09,0,0,1-2.11-2.11l-1.66.63-.69-1.66,1.66-.68a7.61,7.61,0,0,1-.17-1.52,7.51,7.51,0,0,1,.17-1.51l-1.66-.63.69-1.71,1.66.68A6.72,6.72,0,0,1,17.55,24l-.63-1.6ZM20.75,25a4.15,4.15,0,0,0-3.09,1.29,4.38,4.38,0,0,0,6.2,6.2,4.15,4.15,0,0,0,1.29-3.09,4.4,4.4,0,0,0-4.4-4.4Zm8.8-11.71h1.82v1.26a5.57,5.57,0,0,1,2.06.91l.86-.91,1.31,1.31-.91.86a5.57,5.57,0,0,1,.91,2.06h1.26v1.82H35.6a5,5,0,0,1-.91,2.06l.91,1-1.37,1.26-.8-.92a6,6,0,0,1-2.06.86v1.26H29.55V24.81a5.57,5.57,0,0,1-2.06-.91l-.91,1L25.2,23.55l1-.91a5.57,5.57,0,0,1-.91-2.06H24.06V18.76h1.26a6.16,6.16,0,0,1,.85-2.06l-.91-.8,1.26-1.37,1,.91a5,5,0,0,1,2.06-.91Zm3.31,4a3.39,3.39,0,0,0-4.8,4.8,3.39,3.39,0,0,0,4.8-4.8Z"/></g></g></svg>