<svg xmlns="http://www.w3.org/2000/svg" viewBox="0 0 52.18 52.18"><defs><style>.cls-1{fill:#9e9f9f;}.cls-2{fill:#eaeaeb;}</style></defs><title>Element 39</title><g id="Ebene_2" data-name="Ebene 2"><g id="Ebene_1-2" data-name="Ebene 1"><rect class="cls-1" width="52.18" height="52.18"/><path class="cls-2" d="M30.4,15.36a5,5,0,0,1,5,5,4.7,4.7,0,0,1-1.43,3.48l-8.56,8.57a2.87,2.87,0,0,1-2.09.86,2.94,2.94,0,0,1-2.94-2.94,2.66,2.66,0,0,1,.86-2L29,20.39l1.32,1.25-7.83,7.89a1.07,1.07,0,0,0-.34.8,1.06,1.06,0,0,0,1.08,1.08,1.2,1.2,0,0,0,.8-.28l8.57-8.57a3.19,3.19,0,0,0,.91-2.26,3.11,3.11,0,0,0-5.31-2.2l-8.57,8.57a4.87,4.87,0,0,0-1.54,3.63A5,5,0,0,0,19.64,34a4.92,4.92,0,0,0,3.62,1.52A5.11,5.11,0,0,0,26.92,34l5.71-5.71,1.31,1.26-5.71,5.71a7,7,0,0,1-9.88,0,6.75,6.75,0,0,1-2.06-4.94,6.57,6.57,0,0,1,2.06-4.89l8.57-8.57A4.67,4.67,0,0,1,30.4,15.36Z"/></g></g></svg>