<svg xmlns="http://www.w3.org/2000/svg" viewBox="0 0 52.18 52.18"><defs><style>.cls-1{fill:#9e9f9f;}.cls-2{fill:#eaeaeb;}</style></defs><title>Element 40</title><g id="Ebene_2" data-name="Ebene 2"><g id="Ebene_1-2" data-name="Ebene 1"><rect class="cls-1" width="52.18" height="52.18"/><path class="cls-2" d="M12.71,16.23h25.6V36.34H12.71V16.23Zm1.83,1.83V29.83l5.71-5.72.69-.68.69.68,5.25,5.26,3.43-3.43.68-.68.69.68,4.8,4.8V18.06Zm6.4,8-6.4,6.39v2.06h14.8Zm10,1.82-2.85,2.8,3.77,3.83h4.57V33.37Zm.55-7.45a1.75,1.75,0,0,1,1.28-.54,1.78,1.78,0,0,1,1.29.54,1.8,1.8,0,0,1,0,2.57,1.78,1.78,0,0,1-1.29.54A1.75,1.75,0,0,1,31.54,23a1.78,1.78,0,0,1,0-2.57Z"/></g></g></svg>