<svg xmlns="http://www.w3.org/2000/svg" viewBox="0 0 52.18 52.18"><defs><style>.cls-1{fill:#9e9f9f;}.cls-2{fill:#eaeaeb;}</style></defs><title>Element 43</title><g id="Ebene_2" data-name="Ebene 2"><g id="Ebene_1-2" data-name="Ebene 1"><rect class="cls-1" width="52.18" height="52.18"/><path class="cls-2" d="M25.66,17.07A57.39,57.39,0,0,1,34,17.7a3.63,3.63,0,0,1,2,1,3.48,3.48,0,0,1,1.09,1.94,34.32,34.32,0,0,1,0,11.2A3.48,3.48,0,0,1,36,33.75a3.63,3.63,0,0,1-2,1,58.23,58.23,0,0,1-8.34.63,58,58,0,0,1-8.34-.63,3.63,3.63,0,0,1-2-1,3.54,3.54,0,0,1-1.09-1.94,32.14,32.14,0,0,1-.46-5.6,32.14,32.14,0,0,1,.46-5.6,3.54,3.54,0,0,1,1.09-1.94,3.63,3.63,0,0,1,2-1A57.18,57.18,0,0,1,25.66,17.07Zm0,1.83a60,60,0,0,0-8.12.57A1.7,1.7,0,0,0,16.06,21a28.3,28.3,0,0,0-.46,5.26,28.19,28.19,0,0,0,.46,5.25A1.7,1.7,0,0,0,17.54,33a60,60,0,0,0,8.12.57A60,60,0,0,0,33.77,33a1.7,1.7,0,0,0,1.48-1.49,28.19,28.19,0,0,0,.46-5.25A28.3,28.3,0,0,0,35.25,21a1.7,1.7,0,0,0-1.48-1.48A60,60,0,0,0,25.66,18.9ZM22.91,21l1.37.8,6.4,3.66,1.37.8-1.37.8-6.4,3.65-1.37.8V21Zm1.83,3.2v4.11l3.66-2.05Z"/></g></g></svg>