<?xml version="1.0" encoding="utf-8"?>
<!-- Generator: Adobe Illustrator 22.0.1, SVG Export Plug-In . SVG Version: 6.00 Build 0)  -->
<svg version="1.1"
	 id="Ebene_1" shape-rendering="geometricPrecision" text-rendering="geometricPrecision" image-rendering="optimizeQuality"
	 xmlns="http://www.w3.org/2000/svg" xmlns:xlink="http://www.w3.org/1999/xlink" x="0px" y="0px" viewBox="0 0 56.8 56.8"
	 style="enable-background:new 0 0 56.8 56.8;" xml:space="preserve">
<style type="text/css">
	.st0{fill:#9EA0A1;}
	.st1{fill:none;}
	.st2{fill:#DDDDDD;}
</style>
<path class="st0" d="M0,0h56.8v56.8H0V0z"/>
<path class="st1" d="M0,0h56.8v56.8H0V0z"/>
<path class="st2" d="M31.2,36.8h-5.9v-1.6c0-1.9,0.3-3.5,0.8-4.5c0.8-1.3,1.9-2.7,3.7-4.3c2.1-1.6,3.2-2.7,3.5-2.9
	c0.5-0.8,0.8-1.6,0.8-2.7c0-1.1-0.5-2.1-1.3-3.2c-1.1-0.8-2.4-1.3-4.3-1.3c-1.6,0-2.9,0.5-4,1.6c-1.1,0.8-1.9,2.1-2.4,4.3l-5.9-0.8
	c0.3-2.7,1.3-5.1,3.5-6.9c2.1-2.1,5.1-2.9,8.5-2.9c3.7,0,6.7,0.8,9.1,2.9c2.1,1.9,3.2,4,3.2,6.7c0,1.3-0.5,2.7-1.3,4
	c-0.8,1.3-2.4,3.2-5.1,5.3c-1.3,1.1-2.1,1.9-2.4,2.7C31.2,33.9,31.2,34.9,31.2,36.8z M25.3,45.3v-6.4h5.9v6.4H25.3z"/>
</svg>
