<svg xmlns="http://www.w3.org/2000/svg" viewBox="0 0 52.18 52.18"><defs><style>.cls-1{fill:#9e9f9f;}.cls-2{fill:#eaeaeb;}</style></defs><title>Element 36</title><g id="Ebene_2" data-name="Ebene 2"><g id="Ebene_1-2" data-name="Ebene 1"><rect class="cls-1" width="52.18" height="52.18"/><path class="cls-2" d="M17.93,15.21H34.38V17H32.56v3.65a6.13,6.13,0,0,1-.86,3.17,6.62,6.62,0,0,1-2.23,2.32,6.59,6.59,0,0,1,2.23,2.31,6.16,6.16,0,0,1,.86,3.17v3.66h1.82v1.82H17.93V35.32h1.83V31.66a6.16,6.16,0,0,1,.86-3.17,6.59,6.59,0,0,1,2.23-2.31,6.62,6.62,0,0,1-2.23-2.32,6.13,6.13,0,0,1-.86-3.17V17H17.93ZM21.59,17v3.65a4.57,4.57,0,0,0,7.8,3.23,4.41,4.41,0,0,0,1.34-3.23V17Zm7.8,11.39a4.57,4.57,0,0,0-7.8,3.23v3.66h9.14V31.66A4.43,4.43,0,0,0,29.39,28.43ZM22.5,18.87h7.31v1.82a3.66,3.66,0,1,1-7.31,0Z"/></g></g></svg>