<svg xmlns="http://www.w3.org/2000/svg" viewBox="0 0 52.18 52.18"><defs><style>.cls-1{fill:#9e9f9f;}.cls-2{fill:#eaeaeb;}</style></defs><title>Element 38</title><g id="Ebene_2" data-name="Ebene 2"><g id="Ebene_1-2" data-name="Ebene 1"><rect class="cls-1" width="52.18" height="52.18"/><path class="cls-2" d="M22.52,24.5a5.32,5.32,0,0,1,2.06.4l-1.49,1.48a3.66,3.66,0,0,0-.57-.05,3.73,3.73,0,0,0-2.74,1.14l-1.37,1.37a3.56,3.56,0,0,0-1.15,2.71,3.93,3.93,0,0,0,3.89,3.92,3.59,3.59,0,0,0,2.74-1.15L25.26,33a3.69,3.69,0,0,0,1.09-3.31l1.48-1.48a5.24,5.24,0,0,1,.4,2.05,5.45,5.45,0,0,1-1.71,4.06L25.2,35.58a5.41,5.41,0,0,1-4.05,1.71,5.74,5.74,0,0,1-5.71-5.71,5.41,5.41,0,0,1,1.71-4l1.31-1.32A5.45,5.45,0,0,1,22.52,24.5ZM29.37,22l1.37,1.37-7.31,7.31L22.06,29.3Zm2.29-6.63a5.74,5.74,0,0,1,5.71,5.71,5.45,5.45,0,0,1-1.71,4.06l-1.32,1.31a5.42,5.42,0,0,1-4.05,1.72,5.48,5.48,0,0,1-2.06-.4l1.49-1.49a2.76,2.76,0,0,0,.57.06A3.72,3.72,0,0,0,33,25.18l1.37-1.37a3.57,3.57,0,0,0,1.14-2.71,3.89,3.89,0,0,0-3.88-3.91,3.61,3.61,0,0,0-2.74,1.14L27.55,19.7A3.68,3.68,0,0,0,26.46,23L25,24.5a5.29,5.29,0,0,1-.4-2.06,5.41,5.41,0,0,1,1.71-4.05l1.31-1.32A5.45,5.45,0,0,1,31.66,15.36Z"/></g></g></svg>