<svg xmlns="http://www.w3.org/2000/svg" viewBox="0 0 52.18 52.18"><defs><style>.cls-1{fill:#9e9f9f;}.cls-2{fill:#eaeaeb;}</style></defs><title>Element 49</title><g id="Ebene_2" data-name="Ebene 2"><g id="Ebene_1-2" data-name="Ebene 1"><rect class="cls-1" width="52.18" height="52.18"/><path class="cls-2" d="M15.09,17.3H27.14l-1.83,1.83H16.92V33.75H31.54v-8.4l1.83-1.82v12H15.09Zm19.19-3.66a2.59,2.59,0,0,1,1.92.8,2.87,2.87,0,0,1,0,3.89l-9,9-.23.23h-.29l-3.19.69-1.32.23.23-1.32.69-3.2V23.7l.22-.23,9-9A2.65,2.65,0,0,1,34.28,13.64Zm0,1.83a.88.88,0,0,0-.63.29L24.8,24.61l-.34,1.6,1.6-.34L34.91,17a.78.78,0,0,0,0-1.25A.88.88,0,0,0,34.28,15.47Z"/></g></g></svg>