<?xml version="1.0" encoding="utf-8"?>
<!-- Generator: Adobe Illustrator 22.0.1, SVG Export Plug-In . SVG Version: 6.00 Build 0)  -->
<svg version="1.1" id="Ebene_1" xmlns="http://www.w3.org/2000/svg" xmlns:xlink="http://www.w3.org/1999/xlink" x="0px" y="0px"
	 viewBox="0 0 200 200" style="enable-background:new 0 0 200 200;" xml:space="preserve">
<style type="text/css">
	.st0{fill:#A6C523;}
	.st1{fill:#807578;}
</style>
<g>
	<path class="st0" d="M34.8,62.1c5.9-5.9,15.3-5.9,21.2,0l27.4,27.4c5.9,5.9,5.9,15.3,0,21.2L56,138.1c-5.9,5.9-15.3,5.8-21.2,0
		L7.5,110.6c-5.9-5.9-5.9-15.3,0-21.2L34.8,62.1z M89.7,116.9c5.9-5.9,15.3-5.9,21.2,0l27.4,27.4c5.9,5.9,5.9,15.3,0,21.2
		l-27.4,27.4c-5.9,5.9-15.3,5.9-21.2,0l-27.4-27.4c-5.9-5.9-5.9-15.3,0-21.2L89.7,116.9z M88.5,8.4c5.9-5.9,15.3-5.9,21.2,0
		l27.4,27.4c5.9,5.9,5.9,15.3,0,21.2l-27.4,27.4c-5.9,5.9-15.3,5.9-21.2,0L61.1,57c-5.9-5.9-5.9-15.3,0-21.2L88.5,8.4z M143.3,63.3
		c5.9-5.9,15.3-5.9,21.2,0l27.4,27.4c5.9,5.9,5.9,15.3,0,21.2l-27.4,27.3c-5.9,5.9-15.3,5.9-21.2,0l-27.4-27.4
		c-5.9-5.9-5.9-15.3,0-21.2L143.3,63.3z"/>
	<path class="st0" d="M34.8,62.1c5.9-5.9,15.3-5.9,21.2,0l27.4,27.4c5.9,5.9,5.9,15.3,0,21.2L56,138.1c-5.9,5.9-15.3,5.8-21.2,0
		L7.5,110.6c-5.9-5.9-5.9-15.3,0-21.2L34.8,62.1L34.8,62.1z"/>
	<path class="st1" d="M88.5,8.4c5.9-5.9,15.3-5.9,21.2,0l27.4,27.4c5.9,5.9,5.9,15.3,0,21.2l-27.4,27.4c-5.9,5.9-15.3,5.9-21.2,0
		L61.1,57c-5.9-5.9-5.9-15.3,0-21.2L88.5,8.4L88.5,8.4z"/>
	<path class="st0" d="M143.3,63.3c5.9-5.9,15.3-5.9,21.2,0l27.4,27.4c5.9,5.9,5.9,15.3,0,21.2l-27.4,27.3c-5.9,5.9-15.3,5.9-21.2,0
		l-27.4-27.4c-5.9-5.9-5.9-15.3,0-21.2L143.3,63.3L143.3,63.3z"/>
</g>
</svg>
